#!OML:ASF F:\VICON\USERDATA\INSTALL\rory3\rory3.ASF
:FULLY-SPECIFIED
:DEGREES
41
root -0.18284170568261215 17.60117108937966 22.33705955081798 1.0670993462745648 -6.162131729257247 -0.8428103097054129
lfemur 1.236163696599176 1.8757282357108016 -20.805874532896187
ltibia 70.1758635247821
lfoot 14.038642117477973 -9.68507817748825
ltoes -3.1556997263715445
rfemur -32.82715589984922 2.749282297038195 29.616423715889272
rtibia 48.978208429331524
rfoot -10.591715694957887 -5.4236730636287405
rtoes -0.657628768496695
lowerback nan -0.2227014884482288 -0.7846493984946121
upperback 0.048239851400615485 -0.10186781381418974 2.473387453866599
thorax -9.429230386707804 0.09419334461660467 3.4433905891206034
lowerneck -20.718178732884162 -2.6284106991076355 -2.218863197091147
upperneck 14.401350152837665 -3.1267026184659774 1.6972167187168088
head 7.901916240899745 -1.4301554429533385 0.3433249616488591
lclavicle -6.204540827887487e-15 -3.618570613160639e-15
lhumerus -42.46400328854516 -18.377495622238374 98.59282545133532
lradius 100.16458692798655
lwrist 33.588116283115134
lhand -25.519335218955657 2.1198328727546554
lfingers nan
lthumb 1.2069493467307582 32.116016995164664
rclavicle -5.7760925151728086e-15 -3.375465229596646e-15
rhumerus -55.90773292658099 0.758862004703512 -93.15840881064273
rradius 103.12179448491912
rwrist -6.726829200234273
rhand -16.659447116434972 nan
rfingers nan
rthumb 9.381387155922193 8.494494924757424
42
root -0.24090831357918627 17.33939398137111 23.746295456269564 1.2424007131610422 -6.6179106744136105 -2.504934955482314
lfemur -3.1653084915307677 4.082109860578951 -16.47097757069592
ltibia 78.48909915517484
lfoot 11.769938013411622 -7.592328088569069
ltoes -3.1804423933975636
rfemur -31.650942944389925 4.737038952207122 31.52072195334792
rtibia 52.11654813087391
rfoot -12.945973210475847 -9.238800211344776
rtoes -0.0325553181244258
lowerback nan 0.0933042438985211 0.588485542788011
upperback 0.19091721672247375 0.5478789049563617 3.065928765794996
thorax -9.544389437043444 0.3462132086516297 2.909368099611331
lowerneck -21.1004309568715 -2.6822835841870907 -1.9937600738259584
upperneck 14.142506227777185 -3.2037326097230254 1.669394754532661
head 7.878844955137181 -1.4663110352456448 0.29235813533864685
lclavicle -4.337090689126829e-16 5.370390294626766e-15
lhumerus -45.2568214041113 -17.18439757715749 99.07794818557103
lradius 99.0043179257857
lwrist 34.458999712782116
lhand -25.40431559514083 2.53339511242656
lfingers nan
lthumb 1.3751860910769296 32.48974905239481
rclavicle 1.0222237694535511e-15 5.53003264696547e-15
rhumerus -53.969919445174305 1.6363232726225423 -93.63819602794001
rradius 103.20051640669352
rwrist -7.818881529041072
rhand -16.67348938573255 nan
rfingers nan
rthumb 9.457988406421352 8.466222299095909
43
root -0.2917965673385915 17.15307183594018 24.440081606237325 1.8013819082626457 -6.292582667239939 -4.301589109017149
lfemur -8.229022118297369 5.833742241281936 -12.374648627231538
ltibia 86.38838398137416
lfoot 9.572958628638801 -7.547610107892373
ltoes -1.6498125607041327
rfemur -29.39770754266657 6.248203803876482 33.668263063135356
rtibia 54.007263314338395
rfoot -14.480629977395287 -12.285362209369687
rtoes -1.7222137132918856
lowerback nan 0.26751481549805456 2.3018002001148843
upperback 0.16529319510763796 1.1180969939222882 3.701035044672116
thorax -9.774409947332053 0.5355196231349022 2.296172130745282
lowerneck -21.454610320631645 -2.704502852587447 -1.686796386285895
upperneck 13.833920746422814 -3.2757423207790692 1.6129761214892517
head 7.818324782081172 -1.5031586352897819 0.23616977810015216
lclavicle -1.1305673291865422e-15 5.000126380416383e-15
lhumerus -48.13227663818822 -16.296234051313746 99.57596899033584
lradius 98.53518094366763
lwrist 34.8536672897486
lhand -25.25842960340508 2.6832697732585173
lfingers nan
lthumb 1.6194669426096566 32.71614555027812
rclavicle -1.5937606852290988e-15 3.887387611646092e-15
rhumerus -51.96817167734724 2.773490769155228 -94.10406788650428
rradius 103.48068807410215
rwrist -8.914006763028034
rhand -16.742798108591536 nan
rfingers nan
rthumb 9.4611062635158 8.400018410162719
44
root -0.33956637762217823 17.043925875919218 25.011333157186176 2.407409650879246 -5.999853725066038 -5.900961985850515
lfemur -13.999063029465473 7.519395052738916 -9.075996481100816
ltibia 93.11499122301612
lfoot 7.666503597323314 -8.613834888976132
ltoes 0.35638819357907003
rfemur -26.707366821516715 6.933856955192789 35.6096344221036
rtibia 55.08553265465557
rfoot -15.859568440152094 -14.126505946651736
rtoes -4.217818858166222
lowerback nan 0.4662398835880264 3.8028131798924374
upperback 0.08049943381834246 1.725359102308447 4.225650569576996
thorax -10.01359648536047 0.7468252248400699 1.6463012346514343
lowerneck -21.885047600397876 -2.7986644089797514 -1.4522239370494043
upperneck 13.569819174419202 -3.46006265005476 1.5856562592746637
head 7.773494953357059 -1.5963433559772688 0.18463848048524695
lclavicle -6.012869716995861e-16 4.574897893197013e-15
lhumerus -50.83059624745025 -15.741265179505431 100.02718811384294
lradius 98.76340761225178
lwrist 35.132099090215846
lhand -24.974855709264368 2.810824091827468
lfingers nan
lthumb 1.947710810168201 32.73603951520368
rclavicle -1.8159354969067436e-15 3.5482228946212937e-15
rhumerus -49.96995014164257 4.046347652780237 -94.41816941092239
rradius 104.00100850086545
rwrist -9.192288431300197
rhand -16.756873396472226 nan
rfingers nan
rthumb 9.334500940259849 8.306010845350826
